# xmcd CD database file
#
# Track frame offsets:
#	150
#	24997
#	54139
#	83705
#	108240
#	134524
#	138344
#	165680
#	187688
#	205992
#	236273
#	276428
#	307221
#	325571
#	347352
#
# Disc length: 4741 seconds
#
# Revision: 0
# Processed by: cddbd v1.5.2PL0 Copyright (c) Steve Scherf et al.
# Submitted via: CDex 1.70beta2
#
DISCID=c312830f
DTITLE=e.s.t. - The best of e.s.t. (PartI)
DYEAR=2008
DGENRE=Jazz
TTITLE0=Ballard for the unknown
TTITLE1=Seven days of falling
TTITLE2=Tuesday wonderland
TTITLE3=Dodge the Dodo
TTITLE4=Goog morning Susie Soho
TTITLE5=Evening in Atlantis
TTITLE6=Did they ever tell Cousteau?
TTITLE7=The goldhearted miner
TTITLE8=From Gagarin's point of view
TTITLE9=Elevation of love
TTITLE10=Dolores in shoestand
TTITLE11=Eighthundret streets by feet
TTITLE12=Goldwrap
TTITLE13=Belive, beleft, below
TTITLE14=Serenity
EXTD=YEAR: 2008
EXTT0=
EXTT1=
EXTT2=
EXTT3=
EXTT4=
EXTT5=
EXTT6=
EXTT7=
EXTT8=
EXTT9=
EXTT10=
EXTT11=
EXTT12=
EXTT13=
EXTT14=
PLAYORDER=
